<?xml version="1.0" encoding="utf-8"?>
<!-- Generator: Adobe Illustrator 18.1.1, SVG Export Plug-In . SVG Version: 6.00 Build 0)  -->
<svg version="1.1" id="mainSvg" xmlns="http://www.w3.org/2000/svg" xmlns:xlink="http://www.w3.org/1999/xlink" x="0px" y="0px"
	 viewBox="204 17 1020 760" enable-background="new 204 17 1020 760" xml:space="preserve">
<filter  id="thickDropshadow">
	<!--  stdDeviation is how much to blur  -->
	<feGaussianBlur  stdDeviation="4" in="SourceAlpha"></feGaussianBlur>
	<!--  how much to offset  -->
	<feOffset  dy="0" result="offsetblur" dx="0"></feOffset>
	<feComponentTransfer>
		<feFuncA  type="linear" slope="0.4"></feFuncA>
	</feComponentTransfer>
	<feMerge>
		<!--  this contains the offset blurred image  -->
		<feMergeNode></feMergeNode>
		<!--  this contains the element that the filter is applied to  -->
		<feMergeNode  in="SourceGraphic"></feMergeNode>
	</feMerge>
</filter>
<filter  id="dropshadow">
	<!--  stdDeviation is how much to blur  -->
	<feGaussianBlur  stdDeviation="2" in="SourceAlpha"></feGaussianBlur>
	<!--  how much to offset  -->
	<feOffset  dy="0" result="offsetblur" dx="0"></feOffset>
	<feComponentTransfer>
		<feFuncA  type="linear" slope="0.5"></feFuncA>
	</feComponentTransfer>
	<feMerge>
		<!--  this contains the offset blurred image  -->
		<feMergeNode></feMergeNode>
		<!--  this contains the element that the filter is applied to  -->
		<feMergeNode  in="SourceGraphic"></feMergeNode>
	</feMerge>
</filter>
<g id="svgWrapper">
	<rect id="wrapperBorder" x="204" y="17" fill="#FFFFFF" stroke="#000000" width="1020" height="760"/>
	<g id="topBarGroup">
		<rect id="topBar" x="204" y="17" stroke="#000000" width="1020" height="50"/>
		
			<linearGradient id="topGradient_1_" gradientUnits="userSpaceOnUse" x1="407.7127" y1="793.2" x2="408.7127" y2="793.2" gradientTransform="matrix(710 0 0 -50 -288962 39702)">
			<stop  offset="0" style="stop-color:#333333"/>
			<stop  offset="1" style="stop-color:#000000"/>
		</linearGradient>
		<rect id="topGradient" x="514" y="17" fill="url(#topGradient_1_)" width="710" height="50"/>
		<text transform="matrix(1 0 0 1 544 52)" fill="#FFFFFF" font-family="'MyriadPro-Regular'" font-size="24">Project Name</text>
	</g>
	<g id="logoGroup">
		<g id="logoBg" filter="url(#thickDropshadow)">
			
				<radialGradient id="SVGID_1_" cx="407.7714" cy="793.3929" r="1" fx="407.7714" fy="792.6929" gradientTransform="matrix(280 0 0 -140 -113802 111162)" gradientUnits="userSpaceOnUse">
				<stop  offset="0" style="stop-color:#DFDFDF"/>
				<stop  offset="0.4" style="stop-color:#FFFFFF"/>
				<stop  offset="1" style="stop-color:#FFFFFF"/>
			</radialGradient>
			<rect x="234" y="17" fill="url(#SVGID_1_)" width="280" height="140"/>
		</g>
		<text id="logo" transform="matrix(1 0 0 1 274 97)" font-family="'MyriadPro-Regular'" font-size="34">Logo Here</text>
	</g>
	<text transform="matrix(1 0 0 1 544 92)" font-family="'MyriadPro-Regular'" font-size="18">Style Tile</text>
	<text transform="matrix(1 0 0 1 544 117)" font-family="'TimesNewRomanPS-ItalicMT'" font-size="18">version: 1</text>
	<g id="colorGroup">
		<text id="colorHeader" transform="matrix(1 0 0 1 244 187)" font-family="'MyriadPro-Regular'" font-size="18">Possible Colors</text>
		<g id="colors">
			<g>
				<g filter="url(#dropshadow)">
					<rect x="244" y="217" fill="#FFFFFF" width="70" height="70"/>
				</g>
				<rect x="249" y="222" stroke="#000000" width="60" height="60"/>
			</g>
			<g>
				<g filter="url(#dropshadow)">
					<rect x="334" y="217" fill="#FFFFFF" width="70" height="70"/>
				</g>
				<rect x="339" y="222" stroke="#000000" width="60" height="60"/>
			</g>
			<g>
				<g filter="url(#dropshadow)">
					<rect x="434" y="217" fill="#FFFFFF" width="70" height="70"/>
				</g>
				<rect x="439" y="222" stroke="#000000" width="60" height="60"/>
			</g>
			<g>
				<g filter="url(#dropshadow)">
					<rect x="534" y="217" fill="#FFFFFF" width="70" height="70"/>
				</g>
				<rect x="539" y="222" stroke="#000000" width="60" height="60"/>
			</g>
			<g>
				<g filter="url(#dropshadow)">
					<rect x="634" y="217" fill="#FFFFFF" width="70" height="70"/>
				</g>
				<rect x="639" y="222" stroke="#000000" width="60" height="60"/>
			</g>
		</g>
	</g>
	<g id="textureGroup">
		<text id="textureHeader" transform="matrix(1 0 0 1 244 337)" font-family="'MyriadPro-Regular'" font-size="16">Textures</text>
		<g id="textures">
			<g>
				<g filter="url(#dropshadow)">
					<rect x="244" y="367" fill="#FFFFFF" width="140" height="140"/>
				</g>
				<rect x="249" y="372" stroke="#000000" width="130" height="130"/>
			</g>
			<g>
				<g filter="url(#dropshadow)">
					<rect x="404" y="367" fill="#FFFFFF" width="140" height="140"/>
				</g>
				<rect x="409" y="372" stroke="#000000" width="130" height="130"/>
			</g>
			<g>
				<g filter="url(#dropshadow)">
					<rect x="564" y="367" fill="#FFFFFF" width="140" height="140"/>
				</g>
				<rect x="569" y="372" stroke="#000000" width="130" height="130"/>
			</g>
		</g>
	</g>
	<g id="buttonGroup">
		<g>
			<rect x="244" y="542" stroke="#000000" width="220" height="45"/>
			<text transform="matrix(1 0 0 1 264 567)" fill="#FFFFFF" font-family="'MyriadPro-Regular'" font-size="11">This is an example of a Button</text>
		</g>
		<g>
			<rect x="484" y="542" stroke="#000000" width="220" height="45"/>
			<text transform="matrix(1 0 0 1 504 567)" fill="#FFFFFF" font-family="'MyriadPro-Regular'" font-size="11">Submit Button Example Here</text>
		</g>
	</g>
	<g id="footerLinks">
		<text transform="matrix(1 0 0 1 244 717)" fill="#808080" font-family="'TimesNewRomanPS-ItalicMT'" font-size="15">http://www.styletil.es</text>
		<text transform="matrix(1 0 0 1 244 747)" fill="#808080" font-family="'TimesNewRomanPS-ItalicMT'" font-size="15">Template by @Samanthatoy</text>
		<text transform="matrix(1 0 0 1 454 747)" fill="#808080" font-family="'TimesNewRomanPS-ItalicMT'" font-size="15">Converted to SVG by @twolfsn</text>
	</g>
	<g id="headerGroup">
		<text transform="matrix(1 0 0 1 724 227)" font-family="'MyriadPro-Regular'" font-size="28">This is an Example of a Header</text>
		<text transform="matrix(1 0 0 1 724 247)" fill="#666666" font-family="'MyriadPro-Regular'" font-size="11">Font: Name #hexcode</text>
	</g>
	<g id="subHeaderGroup">
		<text transform="matrix(1 0 0 1 724 292)" font-family="'MyriadPro-Regular'" font-size="22">This is an Example of a Sub Head</text>
		<text transform="matrix(1 0 0 1 724 487)" fill="#666666" font-family="'MyriadPro-Regular'" font-size="11">Font: Name #hexcode</text>
	</g>
	<g id="paragraphGroup">
		<text transform="matrix(1 0 0 1 724 317)" fill="#666666" font-family="'MyriadPro-Regular'" font-size="11">Font: Name #hexcode</text>
	</g>
	<text transform="matrix(1 0 0 1 724 517)" font-family="'MyriadPro-Regular'" font-size="11">This is an example of a Text Link »</text>
	<g id="adjectiveGroup">
		<text id="ajectiveHeader" transform="matrix(1 0 0 1 724 567)" font-family="'MyriadPro-Regular'" font-size="15">Adjectives</text>
		<g id="adjectives">
			<text transform="matrix(1 0 0 1 724 617)" font-family="'MyriadPro-Regular'" font-size="32">Lorem</text>
			<text transform="matrix(1 0 0 1 864 617)" font-family="'MyriadPro-Regular'" font-size="32">Ipsum</text>
			<text transform="matrix(1 0 0 1 1024 617)" font-family="'MyriadPro-Regular'" font-size="32">Dolor</text>
			<text transform="matrix(1 0 0 1 724 667)" font-family="'MyriadPro-Regular'" font-size="32">Sit</text>
			<text transform="matrix(1 0 0 1 864 667)" font-family="'MyriadPro-Regular'" font-size="32">Amet</text>
			<text transform="matrix(1 0 0 1 1024 667)" font-family="'MyriadPro-Regular'" font-size="32">Magna</text>
		</g>
	</g>
	<text transform="matrix(1 0 0 1 724 747)" fill="#B3B3B3" font-family="'MyriadPro-Regular'" font-size="17">Be creative, don&apos;t just use this template as-is!</text>
</g>
</svg>
